<svg width="24" height="24" viewBox="0 0 24 24" fill="none" xmlns="http://www.w3.org/2000/svg">
<path fill-rule="evenodd" clip-rule="evenodd" d="M5.24464 16V18C5.24464 18.2652 5.35 18.5196 5.53753 18.7071C5.72507 18.8946 5.97942 19 6.24464 19H21.2446C21.5099 19 21.7642 18.8946 21.9517 18.7071C22.1393 18.5196 22.2446 18.2652 22.2446 18V10C22.2446 9.73478 22.1393 9.48043 21.9517 9.29289C21.7642 9.10536 21.5099 9 21.2446 9H19.9996V10.8345C20.1366 11.0389 20.3219 11.2064 20.5391 11.3221C20.7562 11.4378 20.9986 11.4982 21.2446 11.498V16.5C20.8483 16.5022 20.4689 16.6613 20.1895 16.9423C19.91 17.2234 19.7531 17.6036 19.7531 18H7.74214C7.73689 17.6059 7.57684 17.2297 7.29657 16.9526C7.01629 16.6755 6.63827 16.5198 6.24414 16.519V16H5.24464Z" fill="#171717"/>
<path d="M12.5 10C12.5 10.5304 12.2893 11.0391 11.9142 11.4142C11.5391 11.7893 11.0304 12 10.5 12C9.96957 12 9.46086 11.7893 9.08579 11.4142C8.71071 11.0391 8.5 10.5304 8.5 10C8.5 9.46957 8.71071 8.96086 9.08579 8.58579C9.46086 8.21071 9.96957 8 10.5 8C11.0304 8 11.5391 8.21071 11.9142 8.58579C12.2893 8.96086 12.5 9.46957 12.5 10Z" fill="#171717"/>
<path fill-rule="evenodd" clip-rule="evenodd" d="M3 5C2.73478 5 2.48043 5.10536 2.29289 5.29289C2.10536 5.48043 2 5.73478 2 6V14C2 14.2652 2.10536 14.5196 2.29289 14.7071C2.48043 14.8946 2.73478 15 3 15H18C18.2652 15 18.5196 14.8946 18.7071 14.7071C18.8946 14.5196 19 14.2652 19 14V6C19 5.73478 18.8946 5.48043 18.7071 5.29289C18.5196 5.10536 18.2652 5 18 5H3ZM4.499 6H16.5005C16.5009 6.39743 16.6591 6.77845 16.9402 7.05934C17.2214 7.34022 17.6026 7.498 18 7.498V12.5C17.6036 12.502 17.2241 12.6609 16.9445 12.942C16.665 13.2232 16.5082 13.6036 16.5085 14H4.498C4.49301 13.6058 4.33304 13.2295 4.05271 12.9523C3.77238 12.6752 3.39421 12.5195 3 12.519V7.5C3.19694 7.5 3.39194 7.46119 3.57387 7.3858C3.75581 7.31041 3.9211 7.1999 4.06031 7.0606C4.19951 6.9213 4.30991 6.75593 4.38518 6.57395C4.46046 6.39197 4.49913 6.19694 4.499 6Z" fill="#171717"/>
</svg>
