<svg width="24" height="24" viewBox="0 0 24 24" fill="none" xmlns="http://www.w3.org/2000/svg">
<g clip-path="url(#clip0_1313_41)">
<path d="M11.9821 0C13.2889 0 14.3473 1.0776 14.3473 2.4072L14.3365 2.6028C15.3781 3.0252 16.3849 3.726 17.2777 4.6548C18.3121 5.7264 18.9169 7.1472 19.1029 8.97V15.5436L20.5321 18.0612C21.0121 18.8604 21.1657 19.53 20.7913 20.1096C20.4481 20.6388 19.8349 20.8236 19.0033 20.8092H15.7993C15.4249 22.632 13.8385 24 11.9401 24C10.0393 24 8.45407 22.632 8.08087 20.8104H4.53367L4.46647 20.8068C3.71407 20.742 3.15367 20.3784 3.02767 19.6788C2.94247 19.2024 3.05527 18.6912 3.34927 18.0816L4.81927 15.4656L4.82287 8.898C4.95127 7.446 5.49487 6.0936 6.44047 4.8528C7.24087 3.8028 8.38447 3.03 9.62527 2.5848C9.62036 2.52573 9.61796 2.46648 9.61807 2.4072C9.61807 1.0776 10.6765 0 11.9821 0ZM14.1637 20.8104H9.71647C10.0465 21.7344 10.9165 22.3944 11.9401 22.3944C12.9625 22.3944 13.8337 21.7344 14.1637 20.8104ZM12.0985 3.7488C10.4737 3.7488 8.68687 4.5228 7.68607 5.8368C6.92047 6.84 6.49327 7.9032 6.39607 8.9688V15.6768C6.39607 15.8172 6.36007 15.9552 6.29167 16.0764L4.74247 18.8316C4.68243 18.951 4.6342 19.076 4.59847 19.2048H19.0153C19.1605 19.2072 19.2709 19.2012 19.3465 19.1988C19.2962 19.0896 19.2397 18.9835 19.1773 18.8808L17.6329 16.1604C17.5635 16.0378 17.5271 15.8993 17.5273 15.7584L17.5309 9.0552C17.3857 7.6608 16.9237 6.5784 16.1521 5.7768C14.9041 4.4808 13.4377 3.7488 12.0985 3.7488ZM11.9821 1.6044C11.807 1.60561 11.6373 1.66479 11.4994 1.7727C11.3615 1.8806 11.2633 2.03115 11.2201 2.2008C11.5153 2.1636 11.8081 2.1444 12.0985 2.1444C12.3109 2.1444 12.5257 2.1564 12.7405 2.1828C12.6941 2.01709 12.5949 1.871 12.4581 1.76664C12.3213 1.66228 12.1542 1.60532 11.9821 1.6044Z" fill="#171717"/>
</g>
<defs>
<clipPath id="clip0_1313_41">
<rect width="24" height="24" fill="white"/>
</clipPath>
</defs>
</svg>
