<svg width="24" height="24" viewBox="0 0 24 24" fill="none" xmlns="http://www.w3.org/2000/svg">
<path d="M22.4258 9.12075C22.335 8.8408 22.1638 8.59375 21.9336 8.41038C21.7034 8.22701 21.4243 8.11542 21.1311 8.0895L15.5633 7.6095L13.3808 2.4195C13.2672 2.14717 13.0755 1.91455 12.8299 1.75093C12.5844 1.58731 12.2959 1.5 12.0008 1.5C11.7057 1.5 11.4172 1.58731 11.1717 1.75093C10.9261 1.91455 10.7344 2.14717 10.6208 2.4195L8.44486 7.6095L2.87049 8.09231C2.57615 8.11705 2.29566 8.22813 2.0642 8.41164C1.83274 8.59515 1.66061 8.84291 1.5694 9.12385C1.47819 9.4048 1.47195 9.70642 1.55148 9.99089C1.631 10.2754 1.79275 10.53 2.01643 10.7229L6.24549 14.4186L4.97799 19.9067C4.91097 20.1939 4.93009 20.4945 5.03297 20.7709C5.13585 21.0472 5.31792 21.2872 5.55642 21.4606C5.79492 21.6341 6.07926 21.7334 6.3739 21.7462C6.66854 21.7589 6.9604 21.6845 7.21299 21.5323L11.9942 18.6261L16.7858 21.5323C17.0384 21.6845 17.3303 21.7589 17.6249 21.7462C17.9195 21.7334 18.2039 21.6341 18.4424 21.4606C18.6809 21.2872 18.8629 21.0472 18.9658 20.7709C19.0687 20.4945 19.0878 20.1939 19.0208 19.9067L17.7542 14.4129L21.9824 10.7229C22.206 10.5294 22.3674 10.274 22.4463 9.98889C22.5252 9.70382 22.5181 9.40178 22.4258 9.12075ZM20.9989 9.5895L16.7708 13.2795C16.565 13.4585 16.4119 13.6902 16.328 13.9497C16.2441 14.2092 16.2325 14.4867 16.2946 14.7523L17.5649 20.2498L12.7771 17.3436C12.5435 17.2013 12.2752 17.1261 12.0017 17.1261C11.7282 17.1261 11.46 17.2013 11.2264 17.3436L6.44518 20.2498L7.70705 14.7561C7.76907 14.4905 7.7575 14.213 7.67358 13.9535C7.58966 13.694 7.43658 13.4623 7.2308 13.2833L3.0008 9.59513C3.00046 9.59232 3.00046 9.58949 3.0008 9.58669L8.5733 9.10481C8.84537 9.08083 9.10572 8.98303 9.32628 8.82194C9.54684 8.66086 9.71923 8.44262 9.82486 8.19075L12.0008 3.00731L14.1758 8.19075C14.2814 8.44262 14.4538 8.66086 14.6744 8.82194C14.8949 8.98303 15.1553 9.08083 15.4274 9.10481L21.0008 9.58669V9.59325L20.9989 9.5895Z" fill="#171717"/>
</svg>
